<?xml version="1.0" ?><!DOCTYPE svg  PUBLIC '-//W3C//DTD SVG 1.1//EN'  'http://www.w3.org/Graphics/SVG/1.1/DTD/svg11.dtd'><svg enable-background="new 0 0 512 512" id="Layer_1" version="1.1" viewBox="0 0 512 512" xml:space="preserve" xmlns="http://www.w3.org/2000/svg" xmlns:xlink="http://www.w3.org/1999/xlink"><g><path d="M506.1,257.2c0,68.2,0,136.3,0.1,204.5c0,4.2-0.9,6.3-5.2,8c-31.4,12.3-62.8,24.8-94,37.6   c-4.1,1.7-6.3,0.7-9-2.1c-21.9-21.5-43.9-42.8-65.8-64.2c-21.7-21.1-43.5-42.2-65.2-63.4c-29.2-28.3-58.4-56.5-87.4-84.9   c-3-2.9-5-3.2-8.3-0.6c-31.8,24.4-63.8,48.6-95.7,72.9c-11.8,9-23.6,17.9-35.3,27c-1.9,1.5-3.5,1.9-5.8,0.6   c-7.5-4-15-7.9-22.6-11.6c-2.8-1.3-3.8-3-3.8-6.1C8,296.1,8,217.3,7.9,138.5c0-2.9,0.9-4.4,3.6-5.7c7.5-3.6,14.9-7.3,22.3-11.2   c2.6-1.4,4.5-1.5,7.1,0.5c43.1,33,86.3,65.7,129.3,98.7c4,3.1,6.3,3.5,10.2-0.4c26.4-26.1,53.1-51.9,79.7-77.9   c37.7-36.7,75.4-73.4,113.1-110.1c8.5-8.2,17.1-16.3,25.5-24.7c2.4-2.4,4.3-2.9,7.4-1.7c32.1,13,64.2,25.9,96.3,38.6   c3.5,1.4,3.7,3.6,3.7,6.6C506,119.9,506,188.6,506.1,257.2C506,257.2,506,257.2,506.1,257.2z M384.3,161.5c-1,0.6-2,1.1-2.9,1.8   c-39.5,29.6-79.1,59.2-118.6,88.8c-6.9,5.2-6.9,3.9,0.1,9.2c38.9,29.5,78,58.9,117.1,88.2c1.2,0.9,2.5,3,4.2,2.1   c1.5-0.8,0.7-3,0.7-4.6c0-60.3,0-120.6,0-180.9C385,164.6,385.5,163.1,384.3,161.5z M52.6,199.9c0,38.4,0,76,0,114.4   c6.1-4.2,10.5-9.2,15.4-13.6c15.3-13.8,30.6-27.6,46-41.4c1.8-1.7,2.8-2.9,0.3-5.1c-15.3-13.5-30.4-27.3-45.8-40.8   C63.4,209,58.9,203.8,52.6,199.9z" fill="#FFFFFF"/></g></svg>